<!-- <svg width="1440" height="842" viewBox="0 0 1440 842" fill="none" xmlns="http://www.w3.org/2000/svg">
<path d="M0 0C0 0 328.5 88.4774 722 88.4774C1146.5 88.4774 1443 0 1443 0V758.295C1443 758.295 1131.5 842 723.5 842C315.5 842 0 758.295 0 758.295V0Z" fill="#F8F8F8"/>
</svg> -->
<svg width="1440" height="842" viewBox="0 0 1440 842" fill="none" xmlns="http://www.w3.org/2000/svg">
    <path d="M0 0C0 0 328.5 88.4774 722 88.4774C1146.5 88.4774 1443 0 1443 0V758.295C1443 758.295 1131.5 842 723.5 842C315.5 842 0 758.295 0 758.295V0Z" fill="#171717"/>
</svg>
