<svg width="32" height="32" viewBox="0 0 32 32" fill="none" xmlns="http://www.w3.org/2000/svg">
<rect x="0.5" y="0.5" width="31" height="31" rx="15.5" stroke="#171717"/>
<path d="M16.0008 8C13.6923 8 13.4026 8.00952 12.496 8.04832C11.5911 8.08736 10.9734 8.22216 10.4329 8.42C9.8738 8.62431 9.39958 8.89767 8.92715 9.34247C8.4543 9.78718 8.16385 10.2335 7.94608 10.7595C7.73528 11.2683 7.59188 11.8499 7.55117 12.7012C7.51062 13.5545 7.5 13.8273 7.5 16C7.5 18.1727 7.5102 18.4445 7.55134 19.2978C7.59299 20.1495 7.73622 20.7308 7.94625 21.2395C8.16351 21.7657 8.45396 22.212 8.92656 22.6567C9.3989 23.1017 9.87312 23.3757 10.4318 23.58C10.9727 23.7778 11.5905 23.9126 12.4952 23.9517C13.4019 23.9905 13.6914 24 15.9997 24C18.3084 24 18.5973 23.9905 19.5039 23.9517C20.4088 23.9126 21.0272 23.7778 21.568 23.58C22.1269 23.3757 22.6004 23.1017 23.0727 22.6567C23.5455 22.212 23.8359 21.7657 24.0538 21.2397C24.2627 20.7308 24.4062 20.1493 24.4487 19.298C24.4894 18.4447 24.5 18.1727 24.5 16C24.5 13.8273 24.4894 13.5547 24.4487 12.7013C24.4062 11.8496 24.2627 11.2684 24.0538 10.7597C23.8359 10.2335 23.5455 9.78718 23.0727 9.34247C22.5999 8.89751 22.1271 8.62415 21.5675 8.42008C21.0256 8.22216 20.4076 8.08728 19.5027 8.04832C18.596 8.00952 18.3073 8 15.9981 8H16.0008ZM15.2382 9.44167C15.4646 9.44135 15.7171 9.44167 16.0008 9.44167C18.2704 9.44167 18.5393 9.44935 19.4355 9.48767C20.2643 9.52334 20.7141 9.65366 21.0137 9.76318C21.4104 9.90814 21.6932 10.0815 21.9905 10.3616C22.288 10.6416 22.4722 10.9082 22.6266 11.2816C22.743 11.5632 22.8816 11.9865 22.9193 12.7665C22.9601 13.6099 22.9689 13.8631 22.9689 15.9982C22.9689 18.1332 22.9601 18.3865 22.9193 19.2298C22.8814 20.0098 22.743 20.4332 22.6266 20.7148C22.4726 21.0882 22.288 21.354 21.9905 21.6339C21.693 21.9139 21.4106 22.0871 21.0137 22.2322C20.7144 22.3422 20.2643 22.4722 19.4355 22.5079C18.5395 22.5462 18.2704 22.5545 16.0008 22.5545C13.7311 22.5545 13.4621 22.5462 12.5661 22.5079C11.7373 22.4719 11.2875 22.3415 10.9876 22.232C10.591 22.087 10.3076 21.9137 10.0101 21.6337C9.71263 21.3537 9.52853 21.0877 9.37408 20.7142C9.25771 20.4325 9.11908 20.0092 9.08134 19.2292C9.04062 18.3858 9.03246 18.1325 9.03246 15.9962C9.03246 13.8599 9.04062 13.6079 9.08134 12.7645C9.11925 11.9845 9.25771 11.5612 9.37408 11.2792C9.52819 10.9058 9.71264 10.6392 10.0102 10.3592C10.3077 10.0792 10.591 9.90582 10.9877 9.76054C11.2873 9.65054 11.7373 9.52054 12.5661 9.4847C13.3502 9.45135 13.6541 9.44135 15.2382 9.43967V9.44167ZM20.5381 10.77C19.9749 10.77 19.5181 11.1996 19.5181 11.7296C19.5181 12.2596 19.9749 12.6896 20.5381 12.6896C21.1012 12.6896 21.5581 12.2596 21.5581 11.7296C21.5581 11.1996 21.1012 10.7697 20.5381 10.7697V10.77ZM16.0008 11.8916C13.5902 11.8916 11.6357 13.7311 11.6357 16C11.6357 18.2689 13.5902 20.1075 16.0008 20.1075C18.4115 20.1075 20.3653 18.2689 20.3653 16C20.3653 13.7312 18.4113 11.8916 16.0006 11.8916H16.0008ZM16.0008 13.3333C17.5655 13.3333 18.8342 14.5271 18.8342 16C18.8342 17.4727 17.5655 18.6667 16.0008 18.6667C14.4359 18.6667 13.1675 17.4727 13.1675 16C13.1675 14.5271 14.4359 13.3333 16.0008 13.3333Z" fill="#212121"/>
</svg>
