<svg width="61" height="25" viewBox="0 0 61 25" fill="none" xmlns="http://www.w3.org/2000/svg">
<path fill-rule="evenodd" clip-rule="evenodd" d="M2.04101 21.6436C2.31817 21.2153 2.74651 20.4846 2.94808 20.1319C3.14965 19.7791 3.14965 19.7539 3.40161 19.8799C3.65357 20.0059 4.1575 20.2326 4.66143 20.4342C5.16536 20.6358 5.69448 20.7618 6.45037 20.8374C7.20626 20.8877 8.23931 20.8625 8.89442 20.8122C9.57472 20.7618 9.90227 20.661 10.2298 20.5098C10.5574 20.3586 10.8849 20.1571 11.0865 20.0059C11.2881 19.8547 11.3889 19.7791 11.4393 19.7287C11.4896 19.6783 11.4896 19.6783 11.792 20.1319C12.0944 20.5854 12.6991 21.4673 13.0014 21.8956C13.3038 22.3491 13.3038 22.3491 13.2282 22.4247C13.1526 22.5003 12.9762 22.6515 12.6991 22.8531C12.4219 23.0294 12.044 23.2562 11.5904 23.4326C11.1621 23.609 10.6834 23.7601 10.2298 23.8861C9.77629 24.0121 9.34796 24.1381 8.86922 24.1885C8.3653 24.2389 7.81098 24.2641 7.33224 24.2641C6.87871 24.2641 6.52596 24.2641 6.17321 24.2389C5.82046 24.2137 5.46771 24.1381 5.08977 24.0373C4.71182 23.9365 4.30868 23.8357 3.88034 23.6845C3.452 23.5334 3.02366 23.357 2.67092 23.1806C2.31817 23.0042 2.0662 22.8279 1.86463 22.6767C1.66306 22.5507 1.53708 22.4751 1.56228 22.3491C1.58747 22.2484 1.76385 22.0972 2.04101 21.6436Z" fill="#FF6633"/>
<path fill-rule="evenodd" clip-rule="evenodd" d="M1.3606 5.16513C1.91492 5.13994 2.62042 5.13994 2.97317 5.13994C3.32592 5.13994 3.32592 5.13994 3.32592 5.76985C3.32592 6.39976 3.30072 7.65957 3.30072 8.71782C3.30072 9.80126 3.30072 10.6831 3.32592 11.5902C3.35112 12.4973 3.42671 13.3791 3.65347 14.0594C3.88024 14.7146 4.25819 15.1429 4.61094 15.4452C4.96368 15.7476 5.26604 15.8988 5.61879 16.0752C5.97154 16.2515 6.32429 16.4279 6.75263 16.5035C7.18096 16.5791 7.65969 16.5539 8.06284 16.4783C8.49117 16.4027 8.84393 16.2515 9.24707 16.0248C9.65021 15.798 10.0533 15.4956 10.4313 15.1177C10.784 14.7398 11.0612 14.2862 11.2376 13.6563C11.414 13.0264 11.4895 12.2453 11.4643 11.1115C11.4643 9.97764 11.3636 8.46586 11.3384 7.40761C11.288 6.34936 11.288 5.71945 11.288 5.4171C11.2628 5.11474 11.2376 5.11474 11.7667 5.11474C12.2958 5.11474 13.3793 5.11474 13.9336 5.08954C14.4879 5.06435 14.4879 5.03915 14.4879 6.14779C14.4879 7.25643 14.4879 9.49891 14.5131 10.9351C14.5383 12.3713 14.5635 12.9508 14.4879 13.5303C14.4123 14.1098 14.2359 14.6642 14.0092 15.1933C13.7824 15.7224 13.4801 16.2011 13.1273 16.6799C12.7494 17.1586 12.2958 17.6373 11.8171 18.0405C11.3384 18.4436 10.8344 18.746 10.2549 18.9979C9.7006 19.2247 9.07069 19.4011 8.54157 19.5019C8.01244 19.6027 7.6093 19.6278 7.20616 19.6278C6.80302 19.6278 6.37468 19.5775 5.99674 19.5019C5.61879 19.4263 5.29124 19.3255 4.88809 19.1239C4.48495 18.9475 3.98103 18.6704 3.4771 18.3932C2.99837 18.0909 2.51964 17.7633 2.0913 17.3098C1.66296 16.8562 1.25982 16.3271 0.982659 15.8736C0.680302 15.4201 0.503928 15.0421 0.352749 14.513C0.201571 13.9587 0.100786 13.2532 0.0503929 11.9178C1.91482e-07 10.6075 0 8.66743 0 7.4832C0 6.29897 0 5.79504 0 5.56827C0 5.31631 0.0251967 5.31631 0.226768 5.29111C0.377946 5.19033 0.806284 5.19033 1.3606 5.16513Z" fill="#171717"/>
<path fill-rule="evenodd" clip-rule="evenodd" d="M30.2104 18.217C30.2356 17.1588 30.2356 15.1935 30.2607 13.8329C30.2859 12.4471 30.2859 11.6408 30.3615 10.9605C30.4371 10.3054 30.5883 9.77624 30.8403 9.27231C31.0922 8.76838 31.4198 8.28965 31.7977 7.83612C32.1757 7.38259 32.604 6.95425 33.2087 6.52591C33.8134 6.09757 34.6197 5.66923 35.6276 5.41727C36.6354 5.16531 37.8197 5.11491 38.4244 5.06452C39.0291 5.03932 39.0291 5.03932 39.0291 5.54325C39.0291 6.07237 39.0543 7.10542 39.0543 7.63455C39.0543 8.16367 39.0543 8.16367 38.6763 8.16367C38.2732 8.18887 37.4921 8.21406 36.8622 8.26446C36.2323 8.34005 35.8039 8.44083 35.3504 8.71799C34.9221 8.99515 34.4937 9.39829 34.1662 9.77624C33.8386 10.1542 33.6371 10.4565 33.5111 10.9857C33.3851 11.5148 33.3347 12.2203 33.3095 13.077C33.2843 13.9336 33.2843 14.9415 33.2843 15.8234C33.2843 16.7052 33.2843 17.4863 33.2843 18.0658C33.2843 18.6706 33.2843 19.0737 33.2591 19.2753C33.2339 19.4768 33.2087 19.4768 32.7048 19.4768C32.1757 19.4768 31.1678 19.4768 30.6387 19.502C30.1348 19.5272 30.1348 19.5524 30.1348 19.502C30.1852 19.4516 30.1852 19.2753 30.2104 18.217Z" fill="#171717"/>
<path fill-rule="evenodd" clip-rule="evenodd" d="M17.9397 12.3715V12.5226C17.9397 14.3116 18.8467 15.647 20.6357 16.5541C21.19 16.7556 21.6939 16.8564 22.1475 16.8564H22.5254C24.012 16.8564 25.2466 16.1005 26.2041 14.6139C26.5568 13.9084 26.7332 13.2533 26.7332 12.6234V12.4219C26.7332 10.7085 25.8765 9.37309 24.1884 8.46602C23.6088 8.21406 23.0041 8.06288 22.349 8.06288H22.2986C20.4845 8.06288 19.1239 8.99515 18.2168 10.8849C18.0404 11.4896 17.9397 11.9683 17.9397 12.3715ZM26.7332 18.0658C25.6749 19.0737 24.264 19.5524 22.5254 19.5524H22.1475C19.7286 19.5524 17.7381 18.343 16.1255 15.9241C15.546 14.7399 15.2437 13.5809 15.2437 12.3967C15.2437 9.75104 16.5287 7.65974 19.1239 6.12276C20.2325 5.61883 21.2908 5.34167 22.349 5.34167C25.0198 5.34167 27.1615 6.65189 28.7237 9.27231C29.2024 10.3558 29.4544 11.4644 29.4544 12.5982V18.2674C29.4544 18.9729 29.0261 19.4012 28.1694 19.5272H28.0686C27.4639 19.5272 27.0355 19.1745 26.7332 18.469V18.3178V18.0658Z" fill="#171717"/>
<path fill-rule="evenodd" clip-rule="evenodd" d="M52.6356 0H52.8624C53.6938 0.176375 54.097 0.579516 54.097 1.18423V10.9856L54.1474 12.6738C54.1474 14.0596 53.5931 15.4958 52.4592 16.9823C50.8719 18.6957 49.0829 19.5524 47.1176 19.5524H46.7145C44.7743 19.5524 42.9602 18.6453 41.2972 16.8312C40.2642 15.395 39.7603 13.9084 39.7603 12.3462C39.7603 10.0282 40.7933 8.06284 42.8594 6.47546C44.1696 5.59359 45.5302 5.16525 46.9412 5.16525C48.7554 5.16525 50.2419 5.66918 51.401 6.70223V2.04091L51.3506 1.18423C51.6529 0.403141 52.0561 0 52.6356 0ZM42.5067 12.2454V12.4974C42.5067 14.3619 43.4893 15.7477 45.4294 16.6548C45.9334 16.806 46.4121 16.8816 46.8152 16.8816H47.1176C48.9317 16.8816 50.2923 15.8989 51.1994 13.9588C51.3506 13.3793 51.4262 12.9257 51.4262 12.5982V12.2958C51.4262 10.4565 50.4435 9.07069 48.453 8.13842C47.8483 7.98725 47.3696 7.91166 47.042 7.91166H46.8404C45.0263 7.91166 43.6657 8.86912 42.7586 10.784C42.6074 11.3384 42.5067 11.8171 42.5067 12.2454Z" fill="#171717"/>
<path d="M59.0848 19.4517C60.1424 19.4517 60.9998 18.5943 60.9998 17.5367C60.9998 16.4792 60.1424 15.6218 59.0848 15.6218C58.0273 15.6218 57.1699 16.4792 57.1699 17.5367C57.1699 18.5943 58.0273 19.4517 59.0848 19.4517Z" fill="#FF6633"/>
</svg>
