<svg width="185" height="41" viewBox="0 0 185 41" fill="none" xmlns="http://www.w3.org/2000/svg">
<path d="M5.004 13V8.284L0.432 0.399999H3.114L6.21 5.998L9.324 0.399999H12.006L7.434 8.284V13H5.004ZM15.8008 13.18C13.3348 13.18 11.1568 11.578 11.1568 8.32C11.1568 5.062 13.3348 3.46 15.8008 3.46C18.2488 3.46 20.4448 5.062 20.4448 8.32C20.4448 11.578 18.2488 13.18 15.8008 13.18ZM15.8008 11.254C17.2408 11.254 18.2668 10.264 18.2668 8.32C18.2668 6.376 17.2408 5.386 15.8008 5.386C14.3428 5.386 13.3168 6.376 13.3168 8.32C13.3168 10.264 14.3428 11.254 15.8008 11.254ZM28.3331 3.64H30.6371V13H28.3331V11.074H28.2431C28.0271 11.992 27.0551 13.18 25.1831 13.18C23.2571 13.18 21.9251 11.956 21.9251 9.526V3.64H24.2291V8.986C24.2291 10.516 24.8771 11.272 26.1551 11.272C27.4511 11.272 28.3331 10.48 28.3331 8.986V3.64ZM37.9959 3.46C39.9399 3.46 41.2539 4.684 41.2539 7.114V13H38.9499V7.654C38.9499 6.142 38.2839 5.368 37.0419 5.368C35.7279 5.368 34.8639 6.16 34.8639 7.654V13H32.5599V3.64H34.8639V5.566H34.9359C35.1519 4.648 36.1239 3.46 37.9959 3.46ZM49.6567 3.64H51.9607V12.712C51.9607 14.206 51.4927 15.268 50.5387 15.862C49.5847 16.456 48.4687 16.762 47.2267 16.762C46.1107 16.762 45.1207 16.528 44.2747 16.078C43.4107 15.61 42.9787 14.8 42.9607 13.63H44.9947C45.0487 14.512 46.0207 14.98 47.1727 14.98C48.6307 14.98 49.6567 14.224 49.6567 12.712V11.362C49.0987 12.226 48.0367 12.766 46.7407 12.766C44.6707 12.766 42.7447 11.38 42.7447 8.122C42.7447 4.882 44.7067 3.46 46.7407 3.46C48.0367 3.46 49.0987 4 49.6567 4.864V3.64ZM47.3347 10.858C48.7027 10.858 49.7467 9.868 49.7467 8.122C49.7467 6.34 48.7027 5.386 47.3347 5.386C45.9667 5.386 44.9047 6.34 44.9047 8.122C44.9047 9.868 45.9667 10.858 47.3347 10.858ZM69.6766 13H67.1746L66.2746 10.426H60.7846L59.8846 13H57.4006L62.0266 0.399999H65.0506L69.6766 13ZM63.4666 2.83L61.4146 8.662H65.6626L63.6106 2.83H63.4666ZM76.9932 0.399999H79.2972V13H76.9932V11.632C76.5072 12.568 75.4452 13.18 74.0952 13.18C71.9712 13.18 69.9732 11.614 69.9732 8.32C69.9732 5.026 71.9712 3.46 74.0952 3.46C75.4452 3.46 76.5072 4.072 76.9932 5.008V0.399999ZM74.6172 11.254C76.0032 11.254 77.1012 10.21 77.1012 8.32C77.1012 6.43 76.0032 5.386 74.6172 5.386C73.2312 5.386 72.1332 6.43 72.1332 8.32C72.1332 10.21 73.2312 11.254 74.6172 11.254ZM87.6417 3.64H89.9457V13H87.6417V11.074H87.5517C87.3357 11.992 86.3637 13.18 84.4917 13.18C82.5657 13.18 81.2337 11.956 81.2337 9.526V3.64H83.5377V8.986C83.5377 10.516 84.1857 11.272 85.4637 11.272C86.7597 11.272 87.6417 10.48 87.6417 8.986V3.64ZM91.8685 13V0.399999H94.1725V13H91.8685ZM100.515 11.272H101.289V13.072C100.983 13.108 100.533 13.126 99.9388 13.126C98.1208 13.126 97.0408 12.262 97.0408 10.372V5.422H95.4748V3.64H97.0408V1.246H99.3448V3.64H101.181V5.422H99.3448V10.012C99.3448 10.858 99.6688 11.272 100.515 11.272ZM106.117 13.18C103.651 13.18 102.157 12.118 102.139 10.048H104.191C104.317 10.984 104.965 11.452 106.153 11.452C107.179 11.452 107.845 11.074 107.845 10.3C107.845 9.742 107.521 9.49 106.747 9.292L105.019 8.914C103.273 8.518 102.409 7.618 102.409 6.232C102.409 4.486 103.849 3.46 106.135 3.46C108.511 3.46 109.807 4.576 109.861 6.574H107.953C107.845 5.656 107.269 5.188 106.207 5.188C105.217 5.188 104.605 5.566 104.605 6.196C104.605 6.718 105.019 7.078 105.757 7.222L107.539 7.618C109.213 7.996 110.221 8.734 110.221 10.246C110.221 11.236 109.843 11.956 109.069 12.442C108.295 12.928 107.305 13.18 106.117 13.18ZM10.746 37H8.388L5.868 32.626H3.33V37H0.972V24.4H5.922C9.072 24.4 10.638 25.984 10.638 28.522C10.638 30.394 9.756 31.762 8.01 32.338L10.746 37ZM3.33 26.47V30.556H5.832C7.416 30.556 8.19 29.818 8.19 28.522C8.19 27.208 7.416 26.47 5.832 26.47H3.33ZM20.6837 32.302C20.6837 32.536 20.6657 32.734 20.6297 32.914H13.8797C14.0237 34.696 14.9057 35.488 16.4717 35.488C17.5697 35.488 18.1997 35.038 18.5057 34.102H20.5577C20.0717 36.172 18.4877 37.234 16.3277 37.234C13.7897 37.234 11.7017 35.722 11.7017 32.356C11.7017 28.972 13.7537 27.46 16.2917 27.46C18.9017 27.46 20.6837 29.008 20.6837 32.302ZM13.8797 31.636H18.5057C18.4517 30.142 17.7137 29.224 16.2557 29.224C14.8697 29.224 14.0237 30.052 13.8797 31.636ZM26.2396 27.46C28.9576 27.46 30.1096 28.432 30.1096 30.538V37H27.9136V35.344H27.8236C27.6796 35.992 26.6536 37.18 24.7096 37.18C22.9996 37.18 21.7036 36.334 21.7036 34.606C21.7036 32.878 22.9456 32.23 24.9076 31.96L26.7436 31.708C27.5896 31.618 27.8056 31.402 27.8056 30.844V30.646C27.8056 29.548 27.2296 29.17 26.1496 29.17C24.9976 29.17 24.4216 29.62 24.4216 30.502V30.61L22.2436 30.646V30.286C22.2436 28.396 23.5756 27.46 26.2396 27.46ZM27.8056 33.778V32.608C27.7156 32.806 27.4456 32.878 26.7976 32.968L25.4656 33.148C24.4576 33.31 23.9716 33.652 23.9716 34.318C23.9716 35.02 24.4576 35.488 25.5196 35.488C26.9956 35.488 27.8056 34.48 27.8056 33.778ZM32.0501 37V24.4H34.3541V37H32.0501ZM37.4385 26.326C36.7185 26.326 36.1245 25.768 36.1245 25.066C36.1245 24.346 36.7185 23.788 37.4385 23.788C38.1405 23.788 38.7345 24.346 38.7345 25.066C38.7345 25.768 38.1405 26.326 37.4385 26.326ZM36.2865 37V27.64H38.5905V37H36.2865ZM40.2708 37V35.056L45.2028 29.584H40.4508V27.64H47.9388V29.584L43.0248 35.056H47.9388V37H40.2708ZM50.7803 26.326C50.0603 26.326 49.4663 25.768 49.4663 25.066C49.4663 24.346 50.0603 23.788 50.7803 23.788C51.4823 23.788 52.0763 24.346 52.0763 25.066C52.0763 25.768 51.4823 26.326 50.7803 26.326ZM49.6283 37V27.64H51.9323V37H49.6283ZM59.3006 27.46C61.2446 27.46 62.5586 28.684 62.5586 31.114V37H60.2546V31.654C60.2546 30.142 59.5886 29.368 58.3466 29.368C57.0326 29.368 56.1686 30.16 56.1686 31.654V37H53.8646V27.64H56.1686V29.566H56.2406C56.4566 28.648 57.4286 27.46 59.3006 27.46ZM70.9613 27.64H73.2653V36.712C73.2653 38.206 72.7973 39.268 71.8433 39.862C70.8893 40.456 69.7733 40.762 68.5313 40.762C67.4153 40.762 66.4253 40.528 65.5793 40.078C64.7153 39.61 64.2833 38.8 64.2653 37.63H66.2993C66.3533 38.512 67.3253 38.98 68.4773 38.98C69.9353 38.98 70.9613 38.224 70.9613 36.712V35.362C70.4033 36.226 69.3413 36.766 68.0453 36.766C65.9753 36.766 64.0493 35.38 64.0493 32.122C64.0493 28.882 66.0113 27.46 68.0453 27.46C69.3413 27.46 70.4033 28 70.9613 28.864V27.64ZM68.6393 34.858C70.0073 34.858 71.0513 33.868 71.0513 32.122C71.0513 30.34 70.0073 29.386 68.6393 29.386C67.2713 29.386 66.2093 30.34 66.2093 32.122C66.2093 33.868 67.2713 34.858 68.6393 34.858ZM83.7453 35.272H84.5193V37.072C84.2133 37.108 83.7633 37.126 83.1693 37.126C81.3513 37.126 80.2713 36.262 80.2713 34.372V29.422H78.7053V27.64H80.2713V25.246H82.5753V27.64H84.4113V29.422H82.5753V34.012C82.5753 34.858 82.8993 35.272 83.7453 35.272ZM91.3455 27.46C93.2895 27.46 94.6035 28.684 94.6035 31.114V37H92.2995V31.654C92.2995 30.142 91.6335 29.368 90.3915 29.368C89.0775 29.368 88.2135 30.16 88.2135 31.654V37H85.9095V24.4H88.2135V29.566H88.2855C88.5015 28.648 89.4735 27.46 91.3455 27.46ZM105.076 32.302C105.076 32.536 105.058 32.734 105.022 32.914H98.2723C98.4163 34.696 99.2983 35.488 100.864 35.488C101.962 35.488 102.592 35.038 102.898 34.102H104.95C104.464 36.172 102.88 37.234 100.72 37.234C98.1823 37.234 96.0943 35.722 96.0943 32.356C96.0943 28.972 98.1463 27.46 100.684 27.46C103.294 27.46 105.076 29.008 105.076 32.302ZM98.2723 31.636H102.898C102.844 30.142 102.106 29.224 100.648 29.224C99.2623 29.224 98.4163 30.052 98.2723 31.636ZM107.698 26.326C106.978 26.326 106.384 25.768 106.384 25.066C106.384 24.346 106.978 23.788 107.698 23.788C108.4 23.788 108.994 24.346 108.994 25.066C108.994 25.768 108.4 26.326 107.698 26.326ZM106.546 37V27.64H108.85V37H106.546ZM115.913 27.568C116.183 27.568 116.417 27.604 116.633 27.658V29.602C116.363 29.566 116.111 29.548 115.913 29.548C114.257 29.548 113.087 30.556 113.087 32.644V37H110.783V27.64H113.087V29.872H113.141C113.483 28.504 114.419 27.568 115.913 27.568ZM121.91 24.4H126.482C130.388 24.4 132.44 26.65 132.44 30.7C132.44 34.75 130.388 37 126.482 37H121.91V24.4ZM124.268 34.93H126.248C128.966 34.93 130.027 33.67 130.027 30.7C130.027 27.73 128.966 26.47 126.248 26.47H124.268V34.93ZM139.239 27.568C139.509 27.568 139.743 27.604 139.959 27.658V29.602C139.689 29.566 139.437 29.548 139.239 29.548C137.583 29.548 136.413 30.556 136.413 32.644V37H134.109V27.64H136.413V29.872H136.467C136.809 28.504 137.745 27.568 139.239 27.568ZM149.531 32.302C149.531 32.536 149.513 32.734 149.477 32.914H142.727C142.871 34.696 143.753 35.488 145.319 35.488C146.417 35.488 147.047 35.038 147.353 34.102H149.405C148.919 36.172 147.335 37.234 145.175 37.234C142.637 37.234 140.549 35.722 140.549 32.356C140.549 28.972 142.601 27.46 145.139 27.46C147.749 27.46 149.531 29.008 149.531 32.302ZM142.727 31.636H147.353C147.299 30.142 146.561 29.224 145.103 29.224C143.717 29.224 142.871 30.052 142.727 31.636ZM155.087 27.46C157.805 27.46 158.957 28.432 158.957 30.538V37H156.761V35.344H156.671C156.527 35.992 155.501 37.18 153.557 37.18C151.847 37.18 150.551 36.334 150.551 34.606C150.551 32.878 151.793 32.23 153.755 31.96L155.591 31.708C156.437 31.618 156.653 31.402 156.653 30.844V30.646C156.653 29.548 156.077 29.17 154.997 29.17C153.845 29.17 153.269 29.62 153.269 30.502V30.61L151.091 30.646V30.286C151.091 28.396 152.423 27.46 155.087 27.46ZM156.653 33.778V32.608C156.563 32.806 156.293 32.878 155.645 32.968L154.313 33.148C153.305 33.31 152.819 33.652 152.819 34.318C152.819 35.02 153.305 35.488 154.367 35.488C155.843 35.488 156.653 34.48 156.653 33.778ZM172.038 27.46C173.928 27.46 175.188 28.684 175.188 31.114V37H172.884V31.654C172.884 30.142 172.272 29.368 171.138 29.368C169.986 29.368 169.23 30.16 169.23 31.654V37H166.926V31.654C166.926 30.142 166.332 29.368 165.198 29.368C164.046 29.368 163.29 30.16 163.29 31.654V37H160.986V27.64H163.29V29.566H163.362C163.506 28.684 164.55 27.46 166.17 27.46C167.538 27.46 168.618 28.18 169.032 29.62C169.248 28.702 170.274 27.46 172.038 27.46ZM180.56 37.18C178.094 37.18 176.6 36.118 176.582 34.048H178.634C178.76 34.984 179.408 35.452 180.596 35.452C181.622 35.452 182.288 35.074 182.288 34.3C182.288 33.742 181.964 33.49 181.19 33.292L179.462 32.914C177.716 32.518 176.852 31.618 176.852 30.232C176.852 28.486 178.292 27.46 180.578 27.46C182.954 27.46 184.25 28.576 184.304 30.574H182.396C182.288 29.656 181.712 29.188 180.65 29.188C179.66 29.188 179.048 29.566 179.048 30.196C179.048 30.718 179.462 31.078 180.2 31.222L181.982 31.618C183.656 31.996 184.664 32.734 184.664 34.246C184.664 35.236 184.286 35.956 183.512 36.442C182.738 36.928 181.748 37.18 180.56 37.18Z" fill="#171717"/>
</svg>
