<svg width="89" height="36" viewBox="0 0 89 36" fill="none" xmlns="http://www.w3.org/2000/svg">
<path fill-rule="evenodd" clip-rule="evenodd" d="M2.97779 31.5781C3.38217 30.9532 4.00712 29.8871 4.30121 29.3724C4.5953 28.8578 4.5953 28.821 4.96292 29.0048C5.33054 29.1886 6.06577 29.5195 6.801 29.8136C7.53624 30.1077 8.30823 30.2915 9.41108 30.4018C10.5139 30.4753 12.0212 30.4385 12.977 30.365C13.9695 30.2915 14.4474 30.1444 14.9253 29.9239C15.4032 29.7033 15.8811 29.4092 16.1752 29.1886C16.4693 28.9681 16.6164 28.8578 16.6899 28.7842C16.7634 28.7107 16.7634 28.7107 17.2046 29.3724C17.6457 30.0341 18.528 31.3208 18.9691 31.9457C19.4103 32.6075 19.4103 32.6075 19.3 32.7177C19.1897 32.828 18.9324 33.0486 18.528 33.3427C18.1236 33.6 17.5722 33.9309 16.9105 34.1882C16.2855 34.4455 15.587 34.6661 14.9253 34.8499C14.2636 35.0337 13.6387 35.2175 12.9402 35.2911C12.205 35.3646 11.3962 35.4013 10.6977 35.4013C10.036 35.4013 9.52137 35.4013 9.0067 35.3646C8.49204 35.3278 7.97738 35.2175 7.42595 35.0705C6.87453 34.9234 6.28634 34.7764 5.66139 34.5558C5.03644 34.3353 4.41149 34.0779 3.89683 33.8206C3.38217 33.5633 3.01455 33.3059 2.72046 33.0854C2.42636 32.9015 2.24256 32.7913 2.27932 32.6075C2.31608 32.4604 2.57341 32.2398 2.97779 31.5781Z" fill="#FF6633"/>
<path fill-rule="evenodd" clip-rule="evenodd" d="M1.98513 7.53604C2.79389 7.49928 3.82321 7.49928 4.33788 7.49928C4.85254 7.49928 4.85254 7.49928 4.85254 8.41832C4.85254 9.33736 4.81578 11.1754 4.81578 12.7194C4.81578 14.3002 4.81578 15.5868 4.85254 16.9103C4.8893 18.2337 4.99959 19.5203 5.33044 20.5129C5.6613 21.4687 6.21272 22.0937 6.72739 22.5348C7.24205 22.9759 7.68319 23.1965 8.19785 23.4538C8.71252 23.7112 9.22718 23.9685 9.85213 24.0788C10.4771 24.1891 11.1755 24.1523 11.7637 24.042C12.3887 23.9317 12.9033 23.7112 13.4915 23.3803C14.0797 23.0495 14.6679 22.6083 15.2193 22.0569C15.734 21.5055 16.1384 20.8438 16.3957 19.9247C16.653 19.0057 16.7633 17.8661 16.7266 16.2118C16.7266 14.5575 16.5795 12.3518 16.5427 10.8078C16.4692 9.26384 16.4692 8.3448 16.4692 7.90366C16.4325 7.46252 16.3957 7.46252 17.1677 7.46252C17.9397 7.46252 19.5204 7.46252 20.3292 7.42576C21.138 7.38899 21.138 7.35223 21.138 8.96975C21.138 10.5873 21.138 13.859 21.1747 15.9545C21.2115 18.0499 21.2482 18.8954 21.138 19.7409C21.0277 20.5864 20.7703 21.3952 20.4395 22.1672C20.1086 22.9392 19.6675 23.6377 19.1528 24.3361C18.6014 25.0346 17.9397 25.7331 17.2412 26.3213C16.5427 26.9094 15.8075 27.3506 14.962 27.7182C14.1532 28.0491 13.2342 28.3064 12.4622 28.4534C11.6902 28.6005 11.102 28.6372 10.5138 28.6372C9.92565 28.6372 9.3007 28.5637 8.74928 28.4534C8.19785 28.3431 7.71995 28.1961 7.13176 27.902C6.54358 27.6447 5.80834 27.2403 5.07311 26.8359C4.37464 26.3948 3.67617 25.9169 3.05122 25.2552C2.42627 24.5935 1.83808 23.8215 1.43371 23.1598C0.992566 22.498 0.735234 21.9466 0.514664 21.1746C0.294094 20.3659 0.147047 19.3365 0.0735236 17.3882C2.79374e-07 15.4766 0 12.6459 0 10.9181C0 9.19032 0 8.45508 0 8.12423C0 7.75661 0.0367622 7.75661 0.330856 7.71985C0.551426 7.5728 1.17637 7.5728 1.98513 7.53604Z" fill="#171717"/>
<path fill-rule="evenodd" clip-rule="evenodd" d="M44.0773 26.5786C44.1141 25.0346 44.1141 22.1672 44.1508 20.1821C44.1876 18.1602 44.1876 16.9838 44.2979 15.9913C44.4082 15.0355 44.6288 14.2635 44.9964 13.5282C45.364 12.793 45.8419 12.0945 46.3933 11.4328C46.9447 10.7711 47.5697 10.1462 48.452 9.52122C49.3342 8.89627 50.5106 8.27132 51.9811 7.9037C53.4516 7.53609 55.1794 7.46256 56.0616 7.38904C56.9439 7.35228 56.9439 7.35228 56.9439 8.08751C56.9439 8.85951 56.9807 10.3667 56.9807 11.1387C56.9807 11.9107 56.9807 11.9107 56.4292 11.9107C55.8411 11.9475 54.7014 11.9842 53.7824 12.0578C52.8634 12.1681 52.2384 12.3151 51.5767 12.7195C50.9518 13.1239 50.3268 13.712 49.8489 14.2635C49.371 14.8149 49.0769 15.256 48.8931 16.028C48.7093 16.8 48.6358 17.8294 48.599 19.0792C48.5623 20.3291 48.5622 21.7996 48.5622 23.0863C48.5622 24.3729 48.5622 25.5125 48.5622 26.3581C48.5622 27.2403 48.5623 27.8285 48.5255 28.1226C48.4887 28.4167 48.452 28.4167 47.7167 28.4167C46.9447 28.4167 45.4743 28.4167 44.7023 28.4535C43.967 28.4902 43.967 28.527 43.967 28.4535C44.0406 28.3799 44.0406 28.1226 44.0773 26.5786Z" fill="#171717"/>
<path fill-rule="evenodd" clip-rule="evenodd" d="M26.1742 18.05V18.2705C26.1742 20.8806 27.4976 22.829 30.1077 24.1524C30.9165 24.4465 31.6517 24.5935 32.3134 24.5935H32.8648C35.0338 24.5935 36.8351 23.4907 38.232 21.3218C38.7467 20.2924 39.004 19.3366 39.004 18.4176V18.1235C39.004 15.6237 37.7541 13.6753 35.2911 12.3519C34.4456 11.9843 33.5633 11.7637 32.6075 11.7637H32.534C29.8872 11.7637 27.902 13.1239 26.5786 15.881C26.3213 16.7633 26.1742 17.4618 26.1742 18.05ZM39.004 26.3581C37.4601 27.8286 35.4014 28.527 32.8648 28.527H32.3134C28.7843 28.527 25.8801 26.7625 23.5274 23.2334C22.6819 21.5056 22.2407 19.8145 22.2407 18.0867C22.2407 14.2267 24.1156 11.1755 27.902 8.93307C29.5195 8.19783 31.0635 7.79346 32.6075 7.79346C36.5043 7.79346 39.629 9.70506 41.9082 13.5283C42.6067 15.109 42.9743 16.7265 42.9743 18.3808V26.6522C42.9743 27.6815 42.3494 28.3065 41.0995 28.4903H40.9524C40.0701 28.4903 39.4452 27.9756 39.004 26.9463V26.7257V26.3581Z" fill="#171717"/>
<path fill-rule="evenodd" clip-rule="evenodd" d="M76.7952 0H77.1261C78.3392 0.257332 78.9274 0.845517 78.9274 1.7278V16.0281L79.0009 18.4911C79.0009 20.513 78.1922 22.6084 76.5379 24.7774C74.2219 27.2772 71.6118 28.5271 68.7444 28.5271H68.1562C65.3256 28.5271 62.6787 27.2036 60.2525 24.5568C58.7452 22.4614 58.01 20.2924 58.01 18.0132C58.01 14.6311 59.5172 11.7637 62.5317 9.44775C64.4433 8.16109 66.4284 7.53614 68.4871 7.53614C71.1339 7.53614 73.3029 8.27137 74.9939 9.7786V2.97769L74.9204 1.7278C75.3615 0.588186 75.9497 0 76.7952 0ZM62.017 17.8662V18.2338C62.017 20.9541 63.4507 22.976 66.2814 24.2995C67.0166 24.52 67.7151 24.6303 68.3033 24.6303H68.7444C71.3913 24.6303 73.3764 23.1966 74.6998 20.366C74.9204 19.5204 75.0307 18.8587 75.0307 18.3808V17.9397C75.0307 15.2561 73.597 13.2342 70.6928 11.874C69.8105 11.6534 69.112 11.5432 68.6341 11.5432H68.34C65.6932 11.5432 63.7081 12.9401 62.3847 15.734C62.1641 16.5427 62.017 17.2412 62.017 17.8662Z" fill="#171717"/>
<path d="M86.2062 28.38C87.7493 28.38 89.0001 27.1291 89.0001 25.5861C89.0001 24.0431 87.7493 22.7922 86.2062 22.7922C84.6632 22.7922 83.4124 24.0431 83.4124 25.5861C83.4124 27.1291 84.6632 28.38 86.2062 28.38Z" fill="#FF6633"/>
</svg>
